<svg width="760" height="368" viewBox="0 0 760 368" xmlns="http://www.w3.org/2000/svg">
<path d="M289,314 289,316" fill="none" stroke="black" stroke-width="1"/>
<path d="M428,268 430,268" fill="none" stroke="black" stroke-width="1"/>
<path d="M410,266 409,267 408,267 407,268 409,268 410,267 422,267 416,267 415,266" fill="none" stroke="black" stroke-width="1"/>
<path d="M391,265 390,266 389,266 400,266 401,265 405,265" fill="none" stroke="black" stroke-width="1"/>
<path d="M215,265 215,267" fill="none" stroke="black" stroke-width="1"/>
<path d="M530,262" fill="none" stroke="black" stroke-width="1"/>
<path d="M537,258" fill="none" stroke="black" stroke-width="1"/>
<path d="M350,258 351,258 352,259 354,259 355,260 357,260 358,261 360,261 361,262 363,262 364,261 365,261 366,262 368,262 369,263 372,263 370,263 369,262 368,262 367,261 366,261 365,260 361,260 360,259 355,259 354,258" fill="none" stroke="black" stroke-width="1"/>
<path d="M539,257" fill="none" stroke="black" stroke-width="1"/>
<path d="M345,257 348,257" fill="none" stroke="black" stroke-width="1"/>
<path d="M334,255 336,255" fill="none" stroke="black" stroke-width="1"/>
<path d="M323,253 324,253" fill="none" stroke="black" stroke-width="1"/>
<path d="M313,252 316,252" fill="none" stroke="black" stroke-width="1"/>
<path d="M302,250 306,250 307,251 309,251 307,251 306,250" fill="none" stroke="black" stroke-width="1"/>
<path d="M557,246" fill="none" stroke="black" stroke-width="1"/>
<path d="M559,245" fill="none" stroke="black" stroke-width="1"/>
<path d="M562,243" fill="none" stroke="black" stroke-width="1"/>
<path d="M190,243" fill="none" stroke="black" stroke-width="1"/>
<path d="M393,241 395,241 396,242 395,241" fill="none" stroke="black" stroke-width="1"/>
<path d="M385,239 387,239 388,240 391,240 388,240 387,239" fill="none" stroke="black" stroke-width="1"/>
<path d="M387,236 389,236" fill="none" stroke="black" stroke-width="1"/>
<path d="M384,235 385,235" fill="none" stroke="black" stroke-width="1"/>
<path d="M387,232 388,232 389,233 388,232" fill="none" stroke="black" stroke-width="1"/>
<path d="M596,231 595,232 591,232 595,232 596,231 599,231" fill="none" stroke="black" stroke-width="1"/>
<path d="M605,230 609,230" fill="none" stroke="black" stroke-width="1"/>
<path d="M612,229 617,229" fill="none" stroke="black" stroke-width="1"/>
<path d="M629,228" fill="none" stroke="black" stroke-width="1"/>
<path d="M494,226" fill="none" stroke="black" stroke-width="1"/>
<path d="M304,226" fill="none" stroke="black" stroke-width="1"/>
<path d="M221,226 222,226" fill="none" stroke="black" stroke-width="1"/>
<path d="M219,225" fill="none" stroke="black" stroke-width="1"/>
<path d="M501,224 502,224" fill="none" stroke="black" stroke-width="1"/>
<path d="M484,224 485,224" fill="none" stroke="black" stroke-width="1"/>
<path d="M319,223 318,224 321,224 322,225 325,225 326,226 329,226 330,227 333,227 334,228 337,228 338,229 341,229 342,230 344,230 345,231 347,231 346,231 345,230 342,230 341,229 338,229 337,228 335,228 334,227 331,227 330,226 328,226 327,225 324,225 323,224 321,224 320,223" fill="none" stroke="black" stroke-width="1"/>
<path d="M249,223 250,223" fill="none" stroke="black" stroke-width="1"/>
<path d="M212,223 213,223 214,224 216,224 214,224 213,223" fill="none" stroke="black" stroke-width="1"/>
<path d="M490,222" fill="none" stroke="black" stroke-width="1"/>
<path d="M266,222 265,223 263,223 265,223" fill="none" stroke="black" stroke-width="1"/>
<path d="M217,222 218,222" fill="none" stroke="black" stroke-width="1"/>
<path d="M209,222" fill="none" stroke="black" stroke-width="1"/>
<path d="M196,222 197,222 198,223 199,223 200,224 202,224 203,225 204,225 205,226 214,226 215,227 217,227 218,228 219,228 218,228 217,227 215,227 214,226 213,226 212,225 210,225 209,224 208,224 207,223 205,223 204,222" fill="none" stroke="black" stroke-width="1"/>
<path d="M322,220 323,221 326,221 327,222 330,222 331,223 335,223 336,224 339,224 340,225 343,225 344,226 346,226 347,227 350,227 351,228 351,227 348,227 347,226 345,226 344,225 341,225 340,224 337,224 336,223 333,223 332,222 329,222 328,221 326,221 325,220" fill="none" stroke="black" stroke-width="1"/>
<path d="M211,220 212,220" fill="none" stroke="black" stroke-width="1"/>
<path d="M488,219 486,221 487,221 487,220 488,219 489,219" fill="none" stroke="black" stroke-width="1"/>
<path d="M208,219" fill="none" stroke="black" stroke-width="1"/>
<path d="M471,218 473,218" fill="none" stroke="black" stroke-width="1"/>
<path d="M215,218 216,218" fill="none" stroke="black" stroke-width="1"/>
<path d="M206,218" fill="none" stroke="black" stroke-width="1"/>
<path d="M212,217" fill="none" stroke="black" stroke-width="1"/>
<path d="M202,217 203,217" fill="none" stroke="black" stroke-width="1"/>
<path d="M206,215" fill="none" stroke="black" stroke-width="1"/>
<path d="M208,213" fill="none" stroke="black" stroke-width="1"/>
<path d="M204,212 205,212" fill="none" stroke="black" stroke-width="1"/>
<path d="M201,211" fill="none" stroke="black" stroke-width="1"/>
<path d="M208,210 210,210" fill="none" stroke="black" stroke-width="1"/>
<path d="M197,210 199,210" fill="none" stroke="black" stroke-width="1"/>
<path d="M265,209 266,210 266,211 266,209" fill="none" stroke="black" stroke-width="1"/>
<path d="M201,208 203,208 204,209 205,209 204,209 203,208" fill="none" stroke="black" stroke-width="1"/>
<path d="M169,206 170,207" fill="none" stroke="black" stroke-width="1"/>
<path d="M599,205" fill="none" stroke="black" stroke-width="1"/>
<path d="M203,205 204,205" fill="none" stroke="black" stroke-width="1"/>
<path d="M413,204 413,206 417,206 418,207 424,207 423,206 421,206 420,205 415,205 414,204" fill="none" stroke="black" stroke-width="1"/>
<path d="M199,204 201,204" fill="none" stroke="black" stroke-width="1"/>
<path d="M165,203" fill="none" stroke="black" stroke-width="1"/>
<path d="M527,201 527,202 528,201 529,201" fill="none" stroke="black" stroke-width="1"/>
<path d="M531,199 531,200" fill="none" stroke="black" stroke-width="1"/>
<path d="M194,199 196,199 197,200 200,200 201,201 203,201 201,201 200,200 197,200 196,199" fill="none" stroke="black" stroke-width="1"/>
<path d="M603,198" fill="none" stroke="black" stroke-width="1"/>
<path d="M415,197 415,198 418,198 419,197 420,197" fill="none" stroke="black" stroke-width="1"/>
<path d="M371,196 372,197 372,196" fill="none" stroke="black" stroke-width="1"/>
<path d="M196,196 197,196" fill="none" stroke="black" stroke-width="1"/>
<path d="M180,195 180,196 185,201 185,202 187,204 188,204 189,205 188,206 195,213 198,213 199,214 199,213 197,213 196,212 195,212 194,211 193,211 192,210 193,209 195,209 194,209 193,208 192,208 191,207 189,207 188,206 189,205 192,205 193,206 196,206 197,207 199,207 197,207 196,206 194,206 193,205 190,205 189,204 188,204 186,202 186,201 187,200 188,201 191,201 192,202 194,202 195,203 197,203 195,203 194,202 192,202 191,201 189,201 188,200 185,200 183,198 184,197 188,197 189,198 192,198 190,198 189,197 186,197 185,196 183,196 182,195" fill="none" stroke="black" stroke-width="1"/>
<path d="M187,194 190,194" fill="none" stroke="black" stroke-width="1"/>
<path d="M600,193 602,195 603,195 602,195" fill="none" stroke="black" stroke-width="1"/>
<path d="M325,193" fill="none" stroke="black" stroke-width="1"/>
<path d="M270,192 270,195" fill="none" stroke="black" stroke-width="1"/>
<path d="M336,191 338,191 339,192 341,192 342,193 343,192 344,193 352,193 353,194 358,194 359,195 366,195 367,196 369,196 367,196 366,195 361,195 360,194 357,194 356,193 352,193 351,192 344,192 343,191" fill="none" stroke="black" stroke-width="1"/>
<path d="M595,190 596,191 597,191 598,192 597,191 596,191" fill="none" stroke="black" stroke-width="1"/>
<path d="M176,190 176,191 177,192 178,192 179,193 184,193 183,193 182,192 181,192 180,191 179,191 178,190" fill="none" stroke="black" stroke-width="1"/>
<path d="M373,189 374,189 375,190 375,189" fill="none" stroke="black" stroke-width="1"/>
<path d="M366,188 368,188" fill="none" stroke="black" stroke-width="1"/>
<path d="M330,188 335,188" fill="none" stroke="black" stroke-width="1"/>
<path d="M343,187" fill="none" stroke="black" stroke-width="1"/>
<path d="M239,187 239,188 242,188 243,189 266,189 268,191 268,194 268,190 267,189 257,189 256,188 248,188 247,187" fill="none" stroke="black" stroke-width="1"/>
<path d="M486,186" fill="none" stroke="black" stroke-width="1"/>
<path d="M230,186 231,186 232,187 234,187 232,187 231,186" fill="none" stroke="black" stroke-width="1"/>
<path d="M555,185 554,186 553,186 552,187 551,187 552,188 552,189 552,188 554,186 555,187 555,189 555,188 556,187 556,185" fill="none" stroke="black" stroke-width="1"/>
<path d="M483,184" fill="none" stroke="black" stroke-width="1"/>
<path d="M335,184 339,184 340,185 349,185 350,186 356,186 357,187 364,187 359,187 358,186 353,186 352,185 346,185 345,184" fill="none" stroke="black" stroke-width="1"/>
<path d="M331,184 333,184" fill="none" stroke="black" stroke-width="1"/>
<path d="M490,182 490,183 492,183 492,182" fill="none" stroke="black" stroke-width="1"/>
<path d="M368,182" fill="none" stroke="black" stroke-width="1"/>
<path d="M350,180 354,180" fill="none" stroke="black" stroke-width="1"/>
<path d="M240,180 239,181 244,181 245,182 252,182 253,181 255,181 256,180" fill="none" stroke="black" stroke-width="1"/>
<path d="M327,179 328,180 329,180 328,179" fill="none" stroke="black" stroke-width="1"/>
<path d="M362,177" fill="none" stroke="black" stroke-width="1"/>
<path d="M344,175 351,175 352,176 354,176 352,176 351,175" fill="none" stroke="black" stroke-width="1"/>
<path d="M321,174 321,175 323,175 324,176 325,176 326,177 330,177 331,178 338,178 339,179 347,179 342,179 341,178 335,178 334,177 330,177 328,175 327,175 326,176 325,175 325,174 324,174 323,175 322,174" fill="none" stroke="black" stroke-width="1"/>
<path d="M334,173 334,174 342,174 338,174 337,173" fill="none" stroke="black" stroke-width="1"/>
<path d="M355,172 359,172" fill="none" stroke="black" stroke-width="1"/>
<path d="M316,172" fill="none" stroke="black" stroke-width="1"/>
<path d="M370,169 372,169" fill="none" stroke="black" stroke-width="1"/>
<path d="M338,169 337,170 344,170 345,171 353,171 346,171 345,170 339,170" fill="none" stroke="black" stroke-width="1"/>
<path d="M394,167" fill="none" stroke="black" stroke-width="1"/>
<path d="M190,167 192,167" fill="none" stroke="black" stroke-width="1"/>
<path d="M211,166" fill="none" stroke="black" stroke-width="1"/>
<path d="M338,165 339,166 347,166 348,167 356,167 357,168 365,168 357,168 356,167 350,167 349,166 342,166 341,165" fill="none" stroke="black" stroke-width="1"/>
<path d="M364,164 367,164" fill="none" stroke="black" stroke-width="1"/>
<path d="M398,163 400,163" fill="none" stroke="black" stroke-width="1"/>
<path d="M391,162 392,162" fill="none" stroke="black" stroke-width="1"/>
<path d="M378,161 379,161" fill="none" stroke="black" stroke-width="1"/>
<path d="M186,160 187,160" fill="none" stroke="black" stroke-width="1"/>
<path d="M339,156 338,157 337,157 336,158 336,161 337,162 348,162 349,163 359,163 354,163 353,162 344,162 343,161 338,161 336,159 337,158 338,158 339,159 340,158 341,159 359,159 360,160 375,160 366,160 365,159 358,159 357,158 347,158 346,157 340,157" fill="none" stroke="black" stroke-width="1"/>
<path d="M225,150 223,152" fill="none" stroke="black" stroke-width="1"/>
<path d="M196,150 195,151 195,152 197,152 198,151 197,150" fill="none" stroke="black" stroke-width="1"/>
<path d="M83,147 83,150 84,151 84,154 85,155 85,159 86,160 86,162 87,163 87,165 88,166 88,168 89,169 89,171 90,172 90,174 91,175 91,177 92,178 92,179 93,180 93,182 94,183 94,184 95,185 95,186 96,187 96,189 97,190 97,191 98,192 98,194 99,195 99,196 100,197 100,198 101,199 101,200 102,201 102,202 103,203 103,204 104,205 104,206 105,207 105,208 106,209 106,210 107,211 107,212 108,213 108,214 109,215 109,216 110,217 110,218 111,219 111,220 112,221 112,222 114,224 114,225 115,226 115,227 117,229 117,230 118,231 118,232 120,234 120,235 123,238 123,239 125,241 125,242 128,245 128,246 133,251 133,252 144,263 145,263 150,268 151,268 154,271 155,271 158,274 159,274 160,275 161,275 163,277 164,277 165,278 166,278 168,280 169,280 170,281 171,281 173,283 175,283 177,285 179,285 180,286 181,286 182,287 184,287 185,288 186,288 187,289 188,289 189,290 192,290 193,291 195,291 195,290 196,289 197,289 197,288 196,288 195,287 196,286 196,278 195,277 195,275 194,274 194,271 193,270 193,268 192,267 192,263 191,262 191,259 190,258 190,257 189,256 189,251 188,250 188,249 187,248 188,247 185,244 186,243 188,243 188,242 186,240 184,240 182,238 181,238 180,237 179,237 178,236 177,236 175,234 173,234 171,232 170,232 168,230 167,230 166,229 165,229 163,227 162,227 159,224 158,224 156,222 153,222 152,221 152,220 149,220 148,219 147,219 145,217 143,217 141,215 139,215 137,213 136,213 135,212 134,212 131,209 131,208 129,208 126,205 125,205 123,203 123,202 122,201 121,201 119,199 118,199 113,194 113,193 112,193 109,190 109,189 107,187 106,187 105,186 105,185 104,185 103,184 103,183 99,179 98,179 96,177 96,176 95,175 95,174 93,172 93,171 90,168 90,166 89,165 89,164 88,163 88,161 87,160 87,159 86,158 86,156 85,155 85,153 84,152 84,150 83,149" fill="none" stroke="black" stroke-width="1"/>
<path d="M195,143 200,143" fill="none" stroke="black" stroke-width="1"/>
<path d="M214,141" fill="none" stroke="black" stroke-width="1"/>
<path d="M207,140 208,141 212,141 210,141 209,140" fill="none" stroke="black" stroke-width="1"/>
<path d="M185,137 182,140 184,142 183,143 182,143 181,142 178,145 178,146 174,150 174,151 170,155 170,156 169,157 169,158 167,160 167,161 166,162 166,163 165,164 165,165 166,165 167,164 168,165 168,166 167,167 166,167 165,168 165,173 166,174 166,175 168,177 168,179 169,180 169,181 172,184 172,185 175,188 180,188 181,189 184,189 185,190 188,190 189,191 191,191 189,191 188,190 185,190 184,189 182,189 181,188 178,188 175,185 175,184 176,183 177,184 181,184 182,185 184,185 185,186 188,186 189,187 192,187 193,188 196,188 199,191 199,192 198,193 197,192 194,192 196,192 197,193 200,193 202,195 202,196 201,197 202,197 206,201 205,202 206,202 209,205 208,206 206,206 208,206 209,207 210,207 212,209 212,211 213,211 215,213 215,215 216,215 218,217 218,219 219,219 222,222 221,223 220,223 222,223 225,226 224,227 225,227 226,228 227,228 228,229 227,230 223,230 222,229 221,229 222,229 223,230 222,231 217,231 220,231 221,232 228,232 229,233 234,233 235,234 237,234 238,235 241,235 242,236 245,236 246,237 248,237 249,238 252,238 253,239 255,239 256,240 259,240 260,241 263,241 264,242 268,242 269,243 272,243 273,244 277,244 278,245 281,245 282,246 286,246 287,247 291,247 292,248 295,248 296,249 300,249 298,249 297,248 298,247 305,247 306,248 312,248 313,249 323,249 324,250 345,250 346,249 349,249 350,248 351,248 352,247 353,247 354,246 355,246 357,244 358,244 361,241 362,241 364,239 371,239 372,240 376,240 377,241 380,241 381,242 381,243 382,243 383,242 385,242 386,243 386,244 387,244 388,243 389,243 390,244 393,244 394,245 397,245 398,246 399,246 400,247 398,245 395,245 394,244 391,244 390,243 387,243 386,242 383,242 382,241 378,241 377,240 375,240 374,239 370,239 368,237 369,236 372,236 373,237 378,237 379,238 383,238 380,238 379,237 375,237 374,236 372,236 371,235 371,234 372,233 377,233 378,234 381,234 378,234 377,233 374,233 373,232 375,230 378,230 379,231 382,231 379,231 377,229 377,228 378,227 382,227 383,228 385,228 383,228 382,227 379,227 377,225 377,224 376,223 377,222 378,222 379,223 382,223 383,224 386,224 388,226 388,227 390,229 390,230 391,231 391,232 394,235 394,236 393,237 392,237 393,237 394,236 397,239 397,240 400,243 400,244 403,247 403,248 406,251 407,251 409,253 410,253 411,254 412,254 413,255 414,255 415,256 419,256 420,257 425,257 426,258 437,258 438,259 452,259 453,260 494,260 495,259 498,259 499,258 501,258 502,257 504,257 505,256 506,256 507,255 508,255 509,254 511,254 512,253 513,253 514,252 515,252 516,251 517,251 518,250 519,250 520,249 521,249 522,248 523,248 524,247 525,247 526,246 528,246 529,245 530,245 531,244 532,244 534,242 535,242 536,241 537,241 538,240 539,240 540,239 542,239 543,238 544,238 545,237 546,237 547,236 548,236 549,235 550,235 551,234 552,234 553,233 554,233 555,232 556,232 557,231 558,231 559,230 560,230 561,229 562,229 563,228 564,228 565,227 567,227 568,226 570,226 571,225 575,225 576,224 582,224 583,223 595,223 596,222 613,222 614,221 630,221 630,219 629,218 616,218 615,219 598,219 597,220 583,220 582,221 575,221 574,222 570,222 569,223 567,223 566,224 564,224 563,225 562,225 561,226 560,226 559,227 558,227 557,228 556,228 555,229 553,229 552,228 553,227 554,227 555,226 556,226 557,225 558,225 559,224 560,224 561,223 562,223 563,222 565,222 566,221 568,221 569,220 572,220 573,219 577,219 578,218 587,218 588,217 606,217 607,216 629,216 630,215 630,214 629,213 620,213 619,214 592,214 591,215 578,215 577,216 572,216 571,217 568,217 567,218 565,218 564,219 563,219 562,220 560,220 559,221 558,221 557,222 556,222 555,223 554,223 553,224 551,224 550,225 549,225 548,226 547,226 546,227 545,227 544,228 543,228 542,229 541,229 540,230 538,230 537,231 536,231 535,232 534,232 533,233 531,233 530,234 529,234 528,235 527,235 526,236 525,236 524,237 523,237 522,238 521,238 520,239 519,239 518,240 516,240 515,241 514,241 513,242 512,242 511,243 509,243 508,244 507,244 506,245 505,245 504,246 503,246 502,247 500,247 499,248 497,248 496,249 491,249 490,250 486,250 485,249 467,249 466,248 451,248 450,247 442,247 441,246 434,246 433,245 426,245 425,244 423,244 422,243 421,243 416,238 416,237 413,234 413,233 412,232 412,231 410,229 410,228 409,227 409,226 407,224 407,223 406,222 406,221 405,220 405,219 404,218 404,217 402,215 402,214 401,213 401,212 400,211 400,210 399,209 399,207 397,205 397,204 398,203 396,201 396,200 395,199 396,198 396,197 399,194 399,193 408,184 408,183 413,178 414,178 426,166 426,165 424,165 423,164 419,164 418,165 417,165 417,166 414,169 413,169 413,170 398,185 398,186 391,193 391,194 389,196 389,202 388,203 386,203 385,202 385,200 386,199 386,198 385,197 385,196 386,195 386,194 387,193 387,192 389,190 389,189 390,188 391,188 391,187 399,179 399,178 410,167 410,166 412,164 412,163 408,163 407,162 405,162 396,171 395,171 383,183 383,184 378,189 378,190 377,191 377,192 376,193 376,194 375,195 375,196 374,197 374,198 375,199 375,203 374,204 372,204 371,203 368,203 367,202 362,202 361,201 357,201 356,200 351,200 350,199 346,199 345,198 345,196 345,197 344,198 341,198 340,197 341,196 342,196 341,196 340,197 335,197 334,196 332,196 332,197 333,198 339,198 340,199 343,199 344,200 343,201 339,201 338,200 337,200 336,201 335,200 334,200 334,203 333,204 333,205 332,206 333,207 329,211 329,212 328,213 329,213 330,214 331,214 332,215 333,215 335,217 334,218 331,218 330,217 327,217 326,216 325,216 325,217 327,217 328,218 332,218 333,219 336,219 337,220 339,220 341,222 343,222 344,221 345,222 345,223 348,223 349,224 350,224 351,223 352,223 353,224 353,225 354,225 355,224 356,224 355,224 354,223 352,223 351,222 348,222 347,221 344,221 343,220 340,220 339,219 337,219 336,218 337,217 340,217 341,218 350,218 351,219 350,220 351,220 352,219 353,219 354,220 356,220 357,221 360,221 362,219 361,219 360,218 360,217 361,216 364,216 365,217 370,217 372,219 370,221 369,221 366,224 365,224 363,226 362,226 359,229 358,229 355,232 354,232 352,234 351,234 349,236 348,236 347,237 344,237 343,238 342,237 340,237 339,236 338,236 337,235 335,235 334,234 329,234 328,233 327,233 326,232 323,232 322,231 320,231 319,230 317,230 316,229 314,229 313,228 314,227 317,227 318,228 322,228 323,229 325,229 326,230 329,230 330,231 332,231 333,232 337,232 338,233 340,233 341,234 340,233 338,233 337,232 334,232 333,231 330,231 329,230 327,230 326,229 323,229 322,228 320,228 319,227 317,227 316,226 315,226 313,228 308,228 307,229 305,229 304,228 296,228 294,226 296,224 300,224 301,225 302,225 303,224 306,224 306,220 308,218 309,218 310,217 310,216 309,215 308,215 307,214 307,213 306,213 305,212 304,212 303,213 302,212 302,206 300,204 299,205 298,204 276,204 275,203 272,203 272,204 271,205 270,205 268,203 268,200 268,207 269,208 269,212 270,213 270,222 271,223 272,223 272,222 273,221 276,224 287,224 288,225 288,226 287,227 283,227 282,226 278,226 277,227 270,227 269,226 268,226 268,227 266,229 262,229 261,228 255,228 254,227 251,227 250,226 248,226 245,223 246,222 247,222 243,222 241,220 241,219 238,216 238,215 235,212 235,211 232,208 232,207 229,204 229,203 227,201 227,200 225,198 225,197 223,195 223,194 221,192 221,191 220,190 220,189 218,187 218,186 217,185 217,184 216,183 216,179 215,178 215,177 216,176 216,174 217,173 217,172 220,169 220,168 230,158 230,157 236,151 237,151 239,149 239,148 242,145 242,143 235,143 231,147 231,148 230,149 229,149 228,150 228,151 220,159 220,160 214,166 214,167 210,171 210,172 209,173 209,175 208,176 207,176 207,177 208,178 208,179 207,180 205,178 205,175 206,174 206,172 207,171 206,170 207,169 208,169 209,168 208,167 208,166 212,162 212,161 217,156 217,155 222,150 222,149 229,142 228,142 227,141 220,141 216,145 215,145 215,146 202,159 202,160 198,164 198,165 195,168 195,171 194,172 194,174 193,175 189,175 188,174 185,174 184,173 181,173 180,172 177,172 176,171 174,171 173,170 172,170 170,168 169,168 168,167 168,166 169,165 171,165 172,164 177,164 178,165 184,165 185,166 188,166 185,166 184,165 180,165 179,164 175,164 173,162 174,161 174,160 175,159 183,159 180,159 179,158 177,158 176,157 175,157 174,156 174,155 175,154 183,154 184,155 187,155 184,155 183,154 182,154 180,152 180,151 181,150 185,150 186,151 190,151 187,151 186,150 182,150 181,149 179,149 178,148 179,147 180,147 181,146 182,146 183,147 184,146 190,146 191,147 193,147 191,147 190,146 186,146 183,143 184,142 185,142 186,143 187,142 188,142 189,143 190,143 191,142 193,142 189,142 188,141 187,141 186,140 186,139 187,138 189,138 190,139 191,138 192,138 193,139 200,139 195,139 194,138 189,138 188,137" fill="none" stroke="black" stroke-width="1"/>
<path d="M345,133" fill="none" stroke="black" stroke-width="1"/>
<path d="M343,131" fill="none" stroke="black" stroke-width="1"/>
<path d="M322,131" fill="none" stroke="black" stroke-width="1"/>
<path d="M342,128 343,129" fill="none" stroke="black" stroke-width="1"/>
<path d="M327,127 327,129 330,132 327,129" fill="none" stroke="black" stroke-width="1"/>
<path d="M280,93" fill="none" stroke="black" stroke-width="1"/>
<path d="M276,90 278,92" fill="none" stroke="black" stroke-width="1"/>
<path d="M187,88 189,88" fill="none" stroke="black" stroke-width="1"/>
<path d="M212,81 213,81 215,83 213,85 212,85 211,86 205,86 204,87 195,87 206,87 207,86 232,86 228,86 227,85 222,85 220,83 219,83 218,82 217,82 216,81" fill="none" stroke="black" stroke-width="1"/>
<path d="M143,20" fill="none" stroke="black" stroke-width="1"/>
<path d="M140,19" fill="none" stroke="black" stroke-width="1"/>
<path d="M137,18" fill="none" stroke="black" stroke-width="1"/>
<path d="M99,8 98,9 97,9 96,10 95,10 94,11 93,11 92,12 91,12 90,13 77,13 77,15 76,16 76,17 69,24 69,25 62,32 62,33 52,43 52,44 47,49 46,49 36,59 35,59 17,77 17,78 14,81 14,82 11,85 11,86 10,87 10,90 11,89 11,87 12,86 13,87 13,88 16,85 17,85 18,84 19,84 21,82 22,82 24,80 25,80 28,77 29,77 31,75 32,75 35,72 36,72 37,71 38,71 39,70 40,70 41,69 42,69 45,66 46,66 48,64 49,64 50,63 51,63 53,61 54,61 56,59 57,59 58,58 59,58 62,55 64,55 65,54 66,54 66,53 68,51 70,51 73,48 74,48 76,46 77,46 81,42 83,42 86,39 87,39 88,38 88,37 90,35 91,35 92,34 93,34 93,33 98,28 98,27 99,26 101,26 102,25 102,23 104,21 105,21 106,20 111,20 112,21 116,21 117,20 121,20 122,19 123,19 124,18 126,18 128,16 131,16 132,17 135,17 134,17 133,16 131,16 130,15 128,15 127,14 125,14 124,13 122,13 121,12 118,12 117,11 114,11 113,10 111,10 110,9 107,9 106,8" fill="none" stroke="black" stroke-width="1"/>
<path d="M38,8" fill="none" stroke="black" stroke-width="1"/>
<path d="M110,0 108,2 109,3 108,4 106,4 105,3 101,3 100,2 96,2 99,2 100,3 104,3 105,4 108,4 109,5 112,5 113,6 116,6 117,7 120,7 121,8 124,8 125,9 128,9 129,10 132,10 133,11 136,11 136,10 137,9 138,9 141,6 142,6 145,3 145,2 146,1 146,0" fill="none" stroke="black" stroke-width="1"/>
</svg>